# xmcd CD database file generated by Grip 3.2.0
# 
# Track frame offsets:
#       182
#       3230
#       22245
#       43455
#       64545
#       86507
#       106555
#       111270
#       129930
#       154260
#       177522
#       200592
#       228872
# 
# Disc length: 3098 seconds
# 
# Revision: 2
# Processed by: cddbd v1.5.2PL0 Copyright (c) Steve Scherf et al.
# Submitted via: Grip 3.2.0
# 
DISCID=a50c180d
DTITLE=Commissioned - Irreplaceable Love
DYEAR=1996
DGENRE=Gospel
TTITLE0=Opening Meditation
TTITLE1=Dominion
TTITLE2=Breakin' Away
TTITLE3=Until My Change Comes
TTITLE4=Do You Still Love Me
TTITLE5=They Must Know
TTITLE6=More Than I (Interlude)
TTITLE7=Irreplaceble Love
TTITLE8=No Weapon
TTITLE9=I Can Love Again
TTITLE10=More Than I
TTITLE11=Crucified With Christ
TTITLE12=Closing Meditation
EXTD=
EXTT0=
EXTT1=
EXTT2=
EXTT3=
EXTT4=
EXTT5=
EXTT6=
EXTT7=
EXTT8=
EXTT9=
EXTT10=
EXTT11=
EXTT12=
PLAYORDER=
